<svg width="18" height="17" viewBox="0 0 18 17" fill="none" xmlns="http://www.w3.org/2000/svg">
<g clip-path="url(#clip0_1396_580)">
<path d="M7.40346 1.29723C6.87844 1.80557 6.84796 2.05526 6.58307 2.75495C6.67708 3.05843 6.7632 3.31698 6.9028 3.58891C7.08307 3.59831 7.27904 3.60452 7.43901 3.60319C7.22546 3.26425 7.14976 2.9617 7.27359 2.43198C7.42388 3.0645 7.7226 3.42784 8.01465 3.57191C8.12062 3.56082 8.22285 3.5482 8.32137 3.53386C8.10276 3.19064 8.0245 2.8874 8.14963 2.35223C8.28583 2.92565 8.54411 3.2778 8.8088 3.44594C8.9716 3.41131 9.13324 3.37146 9.29555 3.3286C9.10273 3.00686 9.03832 2.70797 9.1568 2.20112C9.27413 2.69505 9.48209 3.02489 9.70664 3.21435C9.86826 3.16696 10.0296 3.11885 10.1908 3.07001C10.1668 2.87803 10.1762 2.66537 10.228 2.43534L10.2938 2.14315L10.909 2.26799L10.8433 2.56031C10.7162 3.12503 10.8896 3.37113 11.0987 3.51211C11.3077 3.65303 11.6121 3.627 11.6589 3.59844L11.9237 3.43707L12.2634 3.9401C12.1286 4.0178 11.9873 4.12073 11.8502 4.17452C12.5021 5.09351 12.9751 6.21534 12.7155 7.28067C12.6328 7.59523 12.5047 7.88639 12.306 8.11028C12.7508 8.51303 13.0475 8.84161 13.3906 9.25579C13.2553 9.17293 13.119 9.09136 12.982 9.01108C12.5836 8.77833 12.149 8.53913 11.7594 8.35359C11.1998 8.09461 10.6631 7.74913 10.0912 7.67217C9.303 7.57365 8.47404 7.83144 7.52862 8.37142C7.80375 8.66095 7.99284 8.88521 8.23854 9.17786C7.99459 9.03383 7.72644 8.87671 7.42908 8.70538C6.2913 8.12499 5.14366 7.10409 3.91871 7.04556C2.85062 7.0093 1.82335 7.54211 0.784437 8.32613L0.628906 8.44364V16.4027H1.74603C3.32525 15.8237 4.55212 14.4884 5.1373 13.2643L5.14604 13.2456L5.15739 13.2283C5.48813 12.7219 5.54702 12.2426 5.74422 11.7431C5.94151 11.2436 6.33513 10.7563 7.20809 10.4562C7.36023 10.3845 7.38529 10.4093 7.50982 10.5026C8.5747 11.2998 9.51214 11.5657 10.4191 11.5767C11.5589 11.525 12.4617 11.2486 13.4138 10.9332C13.2751 11.0504 13.1072 11.1726 12.9249 11.2905C12.3894 11.637 11.729 11.9522 11.3066 12.114C10.7922 12.1806 10.3154 12.1942 9.83981 12.1344C9.4917 12.5359 8.94598 12.8104 8.5344 13.0201C10.7684 13.4857 12.5845 13.0503 14.3847 12.2598C14.0519 12.1995 13.7203 12.1373 13.4062 12.0799C14.5119 11.9331 15.6775 11.9548 16.7162 11.9627C16.859 11.962 16.9683 11.9476 17.0203 11.9333C17.5155 10.2375 16.8772 8.6829 15.8217 7.11163C14.764 5.53697 13.299 3.98698 12.2604 2.36226C11.5229 1.78927 10.5618 1.31785 9.55094 0.829102C8.83843 0.970215 8.11705 1.13905 7.40346 1.29723ZM10.3877 3.63772C9.97957 3.75725 9.55905 3.88425 9.20458 3.97015C9.2929 4.13384 9.33512 4.32423 9.32324 4.50811C9.70867 4.53723 10.0601 4.4411 10.3356 4.29707C10.5049 4.20855 10.6411 4.09626 10.7345 3.99957C10.5998 3.90876 10.4808 3.78674 10.3877 3.63765L10.3877 3.63772ZM8.49295 4.12574C8.08193 4.16369 7.63351 4.20417 7.26758 4.19998C7.35111 4.35843 7.39969 4.60064 7.56501 4.69272C7.95575 4.73136 8.28499 4.75902 8.61038 4.63474C8.80034 4.52803 8.67392 4.13477 8.49295 4.12574ZM7.27037 11.0762C6.65549 11.3164 6.48098 11.5789 6.33324 11.953C6.19351 12.3069 6.1156 12.7856 5.82715 13.3148C6.95571 13.1029 8.26059 12.6099 9.10734 11.9837C8.51259 11.8145 7.89969 11.5238 7.27044 11.0762H7.27037ZM7.59604 13.4464C6.94166 13.6867 6.1688 13.9825 5.50963 13.9133C5.02479 14.8315 4.3341 15.7396 3.20694 16.4027H6.16656C6.92024 15.4133 7.49703 14.5242 7.59604 13.4464Z" fill="#72777A"/>
</g>
<defs>
<clipPath id="clip0_1396_580">
<rect width="17.8947" height="17" fill="white"/>
</clipPath>
</defs>
</svg>
