<svg width="25" height="25" viewBox="0 0 25 25" fill="none" xmlns="http://www.w3.org/2000/svg">
<rect width="25" height="25"  fill="none"/>
<path fill-rule="evenodd" clip-rule="evenodd" d="M18.4935 8.34988C18.2933 7.84297 17.9149 7.42665 17.4292 7.17925C17.041 7.00895 16.6107 6.95849 16.1936 7.03433C15.7764 7.11018 15.3915 7.30887 15.088 7.60494L14.4495 8.24346L17.5357 11.4361L18.0678 10.7976C18.2743 10.5868 18.4371 10.3372 18.5467 10.0633C18.6563 9.78928 18.7105 9.49631 18.7063 9.20125C18.7063 8.98841 18.7063 8.66915 18.4935 8.34988ZM15.9394 13.0324L12.9596 9.83977L7.85137 15.1608L7.74495 15.4801L7 18.6727C7 18.992 7.31926 19.4177 7.63853 19.3112L10.5119 18.6727L10.8312 18.5663L15.8329 13.2452L15.9394 13.0324Z" fill="#404446"/>
</svg>
