<svg width="25" height="25" viewBox="0 0 25 25" fill="none" xmlns="http://www.w3.org/2000/svg">
<path d="M12.3646 18.6667C12.7292 18.6667 13.0375 18.5406 13.2896 18.2885C13.5417 18.0365 13.6674 17.7285 13.6667 17.3646C13.666 17.0007 13.5403 16.6924 13.2896 16.4396C13.0389 16.1868 12.7306 16.0611 12.3646 16.0625C11.9986 16.0639 11.6906 16.1899 11.4406 16.4406C11.1906 16.6913 11.0646 16.9993 11.0625 17.3646C11.0604 17.7299 11.1865 18.0382 11.4406 18.2896C11.6948 18.541 12.0028 18.6667 12.3646 18.6667ZM11.4271 14.6563H13.3542C13.3542 14.0833 13.4194 13.6319 13.55 13.3021C13.6806 12.9722 14.0493 12.5208 14.6563 11.9479C15.1076 11.4965 15.4635 11.0667 15.724 10.6583C15.9844 10.25 16.1146 9.75973 16.1146 9.1875C16.1146 8.21528 15.7587 7.46876 15.0469 6.94792C14.3351 6.42709 13.4931 6.16667 12.5208 6.16667C11.5313 6.16667 10.7285 6.42709 10.1125 6.94792C9.49653 7.46876 9.06667 8.09376 8.82292 8.82292L10.5417 9.5C10.6285 9.1875 10.824 8.84896 11.1281 8.48438C11.4323 8.1198 11.8965 7.93751 12.5208 7.93751C13.0764 7.93751 13.4931 8.08959 13.7708 8.39375C14.0486 8.69792 14.1875 9.03195 14.1875 9.39584C14.1875 9.74306 14.0833 10.0688 13.875 10.3729C13.6667 10.6771 13.4063 10.959 13.0938 11.2188C12.3299 11.8958 11.8611 12.408 11.6875 12.7552C11.5139 13.1024 11.4271 13.7361 11.4271 14.6563ZM12.4167 22.8333C10.9757 22.8333 9.62153 22.5601 8.35417 22.0135C7.08681 21.467 5.98438 20.7247 5.04688 19.7865C4.10938 18.8483 3.36736 17.7458 2.82083 16.4792C2.27431 15.2125 2.0007 13.8583 2 12.4167C1.99931 10.975 2.27292 9.62084 2.82083 8.35417C3.36875 7.08751 4.11077 5.98507 5.04688 5.04688C5.98299 4.10869 7.08542 3.36667 8.35417 2.82084C9.62292 2.27501 10.9771 2.00139 12.4167 2.00001C13.8563 1.99862 15.2104 2.27223 16.4792 2.82084C17.7479 3.36945 18.8504 4.11146 19.7865 5.04688C20.7226 5.9823 21.4649 7.08473 22.0135 8.35417C22.5622 9.62362 22.8354 10.9778 22.8333 12.4167C22.8313 13.8556 22.5576 15.2097 22.0125 16.4792C21.4674 17.7486 20.7254 18.851 19.7865 19.7865C18.8476 20.7219 17.7451 21.4642 16.4792 22.0135C15.2132 22.5629 13.859 22.8361 12.4167 22.8333Z" fill="#7E7E7E"/>
</svg>
