<svg width="25" height="25" viewBox="0 0 25 25" fill="none" xmlns="http://www.w3.org/2000/svg">
<path fill-rule="evenodd" clip-rule="evenodd" d="M6.25 2.08301C5.4212 2.08301 4.62634 2.41225 4.04029 2.9983C3.45424 3.58435 3.125 4.37921 3.125 5.20801V19.7913C3.125 20.6201 3.45424 21.415 4.04029 22.0011C4.62634 22.5871 5.4212 22.9163 6.25 22.9163H12.5C13.3288 22.9163 14.1237 22.5871 14.7097 22.0011C15.2958 21.415 15.625 20.6201 15.625 19.7913V5.20801C15.625 4.37921 15.2958 3.58435 14.7097 2.9983C14.1237 2.41225 13.3288 2.08301 12.5 2.08301H6.25ZM16.9719 7.59655C17.1672 7.40127 17.4321 7.29156 17.7083 7.29156C17.9845 7.29156 18.2495 7.40127 18.4448 7.59655L22.6115 11.7632C22.8067 11.9586 22.9164 12.2235 22.9164 12.4997C22.9164 12.7759 22.8067 13.0408 22.6115 13.2361L18.4448 17.4028C18.2483 17.5925 17.9852 17.6975 17.7121 17.6952C17.439 17.6928 17.1777 17.5832 16.9846 17.3901C16.7914 17.197 16.6819 16.9357 16.6795 16.6626C16.6771 16.3895 16.7821 16.1263 16.9719 15.9299L19.3604 13.5413H10.4167C10.1404 13.5413 9.87545 13.4316 9.6801 13.2362C9.48475 13.0409 9.375 12.7759 9.375 12.4997C9.375 12.2234 9.48475 11.9585 9.6801 11.7631C9.87545 11.5678 10.1404 11.458 10.4167 11.458H19.3604L16.9719 9.06947C16.7766 8.87413 16.6669 8.60922 16.6669 8.33301C16.6669 8.0568 16.7766 7.79189 16.9719 7.59655Z" fill="#7E7E7E"/>
</svg>
