<svg width="48" height="48" viewBox="0 0 48 48" fill="none" xmlns="http://www.w3.org/2000/svg">
<rect width="48" height="48" rx="7" fill="#62E176"/>
<path d="M38 7H10C8.34315 7 7 8.34315 7 10V38C7 39.6569 8.34315 41 10 41H38C39.6569 41 41 39.6569 41 38V10C41 8.34315 39.6569 7 38 7Z" stroke="white"/>
<g clip-path="url(#clip0_931_586)">
<path d="M34.625 26.875H38V37H24.5V26.875H27.875V23.5H34.625V26.875ZM29.5625 26.875H32.9375V25.1875H29.5625V26.875ZM36.3125 31.9375H34.625V33.625H32.9375V31.9375H29.5625V33.625H27.875V31.9375H26.1875V35.3125H36.3125V31.9375ZM26.1875 28.5625V30.25H36.3125V28.5625H26.1875ZM22.8125 21.8125C22.8125 22.6299 22.6323 23.3945 22.272 24.1064C21.9116 24.8184 21.3975 25.416 20.7295 25.8994C21.125 26.1016 21.4985 26.3345 21.8501 26.5981C22.2017 26.8618 22.5225 27.1562 22.8125 27.4814V31.9375C22.8125 31.2432 22.6807 30.5884 22.417 29.9731C22.1533 29.3579 21.793 28.8218 21.3359 28.3647C20.8789 27.9077 20.3384 27.543 19.7144 27.2705C19.0903 26.998 18.4355 26.8662 17.75 26.875C17.0469 26.875 16.3921 27.0068 15.7856 27.2705C15.1792 27.5342 14.6431 27.8945 14.1772 28.3516C13.7114 28.8086 13.3467 29.3491 13.083 29.9731C12.8193 30.5972 12.6875 31.252 12.6875 31.9375H11C11 31.2959 11.0879 30.6763 11.2637 30.0786C11.4395 29.481 11.6899 28.9141 12.0151 28.3779C12.3403 27.8418 12.7402 27.3672 13.2148 26.9541C13.6895 26.541 14.208 26.1851 14.7705 25.8862C14.1113 25.4116 13.6016 24.8184 13.2412 24.1064C12.8809 23.3945 12.6963 22.6299 12.6875 21.8125C12.6875 21.1182 12.8193 20.4634 13.083 19.8481C13.3467 19.2329 13.707 18.6968 14.1641 18.2397C14.6211 17.7827 15.1572 17.418 15.7725 17.1455C16.3877 16.873 17.0469 16.7412 17.75 16.75C18.3828 16.75 18.9849 16.8599 19.5562 17.0796C20.1274 17.2993 20.6504 17.6245 21.125 18.0552C21.4062 17.8003 21.7183 17.5762 22.061 17.3828C21.7622 17.0752 21.5337 16.7192 21.3755 16.3149C21.2173 15.9106 21.1338 15.4932 21.125 15.0625C21.125 14.5967 21.2129 14.1616 21.3887 13.7573C21.5645 13.353 21.8062 12.9927 22.1138 12.6763C22.4214 12.3599 22.7773 12.1182 23.1816 11.9512C23.5859 11.7842 24.0254 11.6963 24.5 11.6875C24.9658 11.6875 25.4009 11.7754 25.8052 11.9512C26.2095 12.127 26.5698 12.3687 26.8862 12.6763C27.2026 12.9839 27.4443 13.3398 27.6113 13.7441C27.7783 14.1484 27.8662 14.5879 27.875 15.0625C27.875 15.4932 27.7959 15.9106 27.6377 16.3149C27.4795 16.7192 27.2466 17.0752 26.939 17.3828C27.6685 17.7871 28.2617 18.332 28.7188 19.0176C29.1758 18.332 29.769 17.7871 30.4985 17.3828C30.1997 17.0752 29.9712 16.7192 29.813 16.3149C29.6548 15.9106 29.5713 15.4932 29.5625 15.0625C29.5625 14.5967 29.6504 14.1616 29.8262 13.7573C30.002 13.353 30.2437 12.9927 30.5513 12.6763C30.8589 12.3599 31.2148 12.1182 31.6191 11.9512C32.0234 11.7842 32.4629 11.6963 32.9375 11.6875C33.4033 11.6875 33.8384 11.7754 34.2427 11.9512C34.647 12.127 35.0073 12.3687 35.3237 12.6763C35.6401 12.9839 35.8818 13.3398 36.0488 13.7441C36.2158 14.1484 36.3037 14.5879 36.3125 15.0625C36.3125 15.4932 36.2334 15.9106 36.0752 16.3149C35.917 16.7192 35.6841 17.0752 35.3765 17.3828C35.7808 17.6025 36.1455 17.8706 36.4707 18.187C36.7959 18.5034 37.0684 18.8506 37.2881 19.2285C37.5078 19.6064 37.6836 20.0195 37.8154 20.4678C37.9473 20.916 38.0088 21.3643 38 21.8125H36.3125C36.3125 21.3467 36.2246 20.9116 36.0488 20.5073C35.873 20.103 35.6313 19.7427 35.3237 19.4263C35.0161 19.1099 34.6602 18.8682 34.2559 18.7012C33.8516 18.5342 33.4121 18.4463 32.9375 18.4375C32.4717 18.4375 32.0366 18.5254 31.6323 18.7012C31.228 18.877 30.8677 19.1187 30.5513 19.4263C30.2349 19.7339 29.9932 20.0898 29.8262 20.4941C29.6592 20.8984 29.5713 21.3379 29.5625 21.8125H27.875C27.875 21.3467 27.7871 20.9116 27.6113 20.5073C27.4355 20.103 27.1938 19.7427 26.8862 19.4263C26.5786 19.1099 26.2227 18.8682 25.8184 18.7012C25.4141 18.5342 24.9746 18.4463 24.5 18.4375C24.0693 18.4375 23.6519 18.5166 23.2476 18.6748C22.8433 18.833 22.4873 19.0659 22.1797 19.3735C22.3906 19.7427 22.5488 20.1338 22.6543 20.5469C22.7598 20.96 22.8125 21.3818 22.8125 21.8125ZM32.9375 13.375C32.7002 13.375 32.4805 13.4189 32.2783 13.5068C32.0762 13.5947 31.9004 13.7134 31.751 13.8628C31.6016 14.0122 31.4785 14.1924 31.3818 14.4033C31.2852 14.6143 31.2412 14.834 31.25 15.0625C31.25 15.2998 31.2939 15.5195 31.3818 15.7217C31.4697 15.9238 31.5884 16.0996 31.7378 16.249C31.8872 16.3984 32.0674 16.5215 32.2783 16.6182C32.4893 16.7148 32.709 16.7588 32.9375 16.75C33.1748 16.75 33.3945 16.7061 33.5967 16.6182C33.7988 16.5303 33.9746 16.4116 34.124 16.2622C34.2734 16.1128 34.3965 15.9326 34.4932 15.7217C34.5898 15.5107 34.6338 15.291 34.625 15.0625C34.625 14.8252 34.5811 14.6055 34.4932 14.4033C34.4053 14.2012 34.2866 14.0254 34.1372 13.876C33.9878 13.7266 33.8076 13.6035 33.5967 13.5068C33.3857 13.4102 33.166 13.3662 32.9375 13.375ZM24.5 13.375C24.2627 13.375 24.043 13.4189 23.8408 13.5068C23.6387 13.5947 23.4629 13.7134 23.3135 13.8628C23.1641 14.0122 23.041 14.1924 22.9443 14.4033C22.8477 14.6143 22.8037 14.834 22.8125 15.0625C22.8125 15.2998 22.8564 15.5195 22.9443 15.7217C23.0322 15.9238 23.1509 16.0996 23.3003 16.249C23.4497 16.3984 23.6299 16.5215 23.8408 16.6182C24.0518 16.7148 24.2715 16.7588 24.5 16.75C24.7373 16.75 24.957 16.7061 25.1592 16.6182C25.3613 16.5303 25.5371 16.4116 25.6865 16.2622C25.8359 16.1128 25.959 15.9326 26.0557 15.7217C26.1523 15.5107 26.1963 15.291 26.1875 15.0625C26.1875 14.8252 26.1436 14.6055 26.0557 14.4033C25.9678 14.2012 25.8491 14.0254 25.6997 13.876C25.5503 13.7266 25.3701 13.6035 25.1592 13.5068C24.9482 13.4102 24.7285 13.3662 24.5 13.375ZM17.75 25.1875C18.2158 25.1875 18.6509 25.0996 19.0552 24.9238C19.4595 24.748 19.8198 24.5063 20.1362 24.1987C20.4526 23.8911 20.6943 23.5352 20.8613 23.1309C21.0283 22.7266 21.1162 22.2871 21.125 21.8125C21.125 21.3467 21.0371 20.9116 20.8613 20.5073C20.6855 20.103 20.4438 19.7427 20.1362 19.4263C19.8286 19.1099 19.4727 18.8682 19.0684 18.7012C18.6641 18.5342 18.2246 18.4463 17.75 18.4375C17.2842 18.4375 16.8491 18.5254 16.4448 18.7012C16.0405 18.877 15.6802 19.1187 15.3638 19.4263C15.0474 19.7339 14.8057 20.0898 14.6387 20.4941C14.4717 20.8984 14.3838 21.3379 14.375 21.8125C14.375 22.2783 14.4629 22.7134 14.6387 23.1177C14.8145 23.522 15.0562 23.8823 15.3638 24.1987C15.6714 24.5151 16.0273 24.7568 16.4316 24.9238C16.8359 25.0908 17.2754 25.1787 17.75 25.1875Z" fill="white"/>
</g>
<defs>
<clipPath id="clip0_931_586">
<rect width="27" height="27" fill="white" transform="translate(11 10)"/>
</clipPath>
</defs>
</svg>
