<svg width="45" height="44" viewBox="0 0 45 44" fill="none" xmlns="http://www.w3.org/2000/svg">
<rect width="44" height="44" transform="translate(0.866699)" fill="white"/>
<circle cx="22.8667" cy="22" r="21.5" fill="white" stroke="#DFDFDF"/>
<path d="M23.6696 12.0001H21.9666C19.0222 12.0001 16.7441 14.5808 17.1093 17.5025L17.1886 18.1373C17.3348 19.3064 16.9077 20.4742 16.0418 21.2732C14.8591 22.3646 14.5305 24.1017 15.2329 25.5497L15.3362 25.7628C16 27.1312 17.3872 28.0001 18.9081 28.0001H27.129C28.4323 28.0001 29.6452 27.3343 30.345 26.2348C31.3328 24.6827 31.0712 22.6466 29.7231 21.3946L29.6792 21.3539C29.2658 20.97 28.9472 20.5068 28.7364 20.0001C28.6503 19.7932 28.5 18.1373 28.5 18.1373C28.7364 13.0001 25.5 11.9999 23.6696 12.0001ZM23.6696 12.0001C24.5377 12.0001 22.5 12.0003 23.6696 12.0001ZM20.0499 31.0001L20.3499 31.4001C21.6999 33.2001 24.3999 33.2001 25.7499 31.4001L26.0499 31.0001" stroke="#404446" stroke-width="1.5" stroke-linecap="round"/>
</svg>
