<svg width="25" height="25" viewBox="0 0 25 25" fill="none" xmlns="http://www.w3.org/2000/svg">
<path d="M21.875 4.6875H3.125C2.7106 4.6875 2.31317 4.85212 2.02015 5.14515C1.72712 5.43817 1.5625 5.8356 1.5625 6.25V18.75C1.5625 19.1644 1.72712 19.5618 2.02015 19.8549C2.31317 20.1479 2.7106 20.3125 3.125 20.3125H21.875C22.2894 20.3125 22.6868 20.1479 22.9799 19.8549C23.2729 19.5618 23.4375 19.1644 23.4375 18.75V6.25C23.4375 5.8356 23.2729 5.43817 22.9799 5.14515C22.6868 4.85212 22.2894 4.6875 21.875 4.6875ZM19.9785 13.9365C20.0389 14.0199 20.0822 14.1143 20.106 14.2144C20.1299 14.3145 20.1338 14.4183 20.1175 14.5199C20.1012 14.6216 20.0651 14.719 20.0112 14.8066C19.9572 14.8943 19.8866 14.9704 19.8032 15.0308C19.7199 15.0911 19.6254 15.1344 19.5253 15.1583C19.4252 15.1821 19.3214 15.186 19.2198 15.1697C19.1182 15.1535 19.0208 15.1173 18.9331 15.0634C18.8455 15.0095 18.7693 14.9388 18.709 14.8555L17.9688 13.8291L17.2236 14.8555C17.1018 15.0238 16.918 15.1369 16.7128 15.1697C16.5076 15.2026 16.2977 15.1526 16.1294 15.0308C15.961 14.9089 15.848 14.7252 15.8151 14.5199C15.7823 14.3147 15.8322 14.1049 15.9541 13.9365L16.7002 12.9111L15.4932 12.5205C15.3956 12.4884 15.3054 12.4375 15.2275 12.3705C15.1497 12.3036 15.0858 12.222 15.0395 12.1303C14.946 11.9453 14.9299 11.7307 14.9946 11.5337C15.0267 11.4362 15.0776 11.3459 15.1446 11.2681C15.2115 11.1902 15.2932 11.1263 15.3848 11.08C15.5699 10.9866 15.7845 10.9704 15.9814 11.0352L17.1875 11.4258V10.1562C17.1875 9.94905 17.2698 9.75034 17.4163 9.60382C17.5628 9.45731 17.7615 9.375 17.9688 9.375C18.176 9.375 18.3747 9.45731 18.5212 9.60382C18.6677 9.75034 18.75 9.94905 18.75 10.1562V11.4258L19.9561 11.0352C20.0536 11.0031 20.1565 10.9906 20.2588 10.9983C20.3612 11.006 20.4611 11.0338 20.5527 11.08C20.6443 11.1263 20.726 11.1902 20.7929 11.2681C20.8599 11.3459 20.9108 11.4362 20.9429 11.5337C20.9749 11.6312 20.9875 11.7341 20.9798 11.8365C20.9721 11.9389 20.9443 12.0387 20.898 12.1303C20.8517 12.222 20.7878 12.3036 20.71 12.3705C20.6321 12.4375 20.5419 12.4884 20.4443 12.5205L19.2373 12.9111L19.9785 13.9365ZM12.9473 13.9365C13.0076 14.0199 13.0509 14.1143 13.0748 14.2144C13.0986 14.3145 13.1025 14.4183 13.0862 14.5199C13.07 14.6216 13.0338 14.719 12.9799 14.8066C12.926 14.8943 12.8553 14.9704 12.772 15.0308C12.6886 15.0911 12.5942 15.1344 12.4941 15.1583C12.394 15.1821 12.2902 15.186 12.1885 15.1697C12.0869 15.1535 11.9895 15.1173 11.9019 15.0634C11.8142 15.0095 11.7381 14.9388 11.6777 14.8555L10.9375 13.8291L10.1924 14.8555C10.0705 15.0238 9.88678 15.1369 9.68157 15.1697C9.47636 15.2026 9.26649 15.1526 9.09814 15.0308C8.92979 14.9089 8.81675 14.7252 8.78387 14.5199C8.751 14.3147 8.80099 14.1049 8.92285 13.9365L9.66895 12.9111L8.46191 12.5205C8.36438 12.4884 8.27412 12.4375 8.19629 12.3705C8.11845 12.3036 8.05456 12.222 8.00827 12.1303C7.91478 11.9453 7.89863 11.7307 7.96338 11.5337C7.99544 11.4362 8.0464 11.3459 8.11334 11.2681C8.18028 11.1902 8.2619 11.1263 8.35354 11.08C8.5386 10.9866 8.75323 10.9704 8.9502 11.0352L10.1562 11.4258V10.1562C10.1562 9.94905 10.2386 9.75034 10.3851 9.60382C10.5316 9.45731 10.7303 9.375 10.9375 9.375C11.1447 9.375 11.3434 9.45731 11.4899 9.60382C11.6364 9.75034 11.7188 9.94905 11.7188 10.1562V11.4258L12.9248 11.0352C13.0223 11.0031 13.1252 10.9906 13.2276 10.9983C13.33 11.006 13.4298 11.0338 13.5215 11.08C13.6131 11.1263 13.6947 11.1902 13.7617 11.2681C13.8286 11.3459 13.8796 11.4362 13.9116 11.5337C13.9437 11.6312 13.9562 11.7341 13.9485 11.8365C13.9408 11.9389 13.913 12.0387 13.8667 12.1303C13.8204 12.222 13.7565 12.3036 13.6787 12.3705C13.6009 12.4375 13.5106 12.4884 13.4131 12.5205L12.2061 12.9111L12.9473 13.9365ZM6.25 8.59375V16.4062C6.25 16.6135 6.16769 16.8122 6.02118 16.9587C5.87466 17.1052 5.67595 17.1875 5.46875 17.1875C5.26155 17.1875 5.06284 17.1052 4.91632 16.9587C4.76981 16.8122 4.6875 16.6135 4.6875 16.4062V8.59375C4.6875 8.38655 4.76981 8.18784 4.91632 8.04132C5.06284 7.89481 5.26155 7.8125 5.46875 7.8125C5.67595 7.8125 5.87466 7.89481 6.02118 8.04132C6.16769 8.18784 6.25 8.38655 6.25 8.59375Z" fill="#7E7E7E"/>
</svg>
