<svg width="49" height="49" viewBox="0 0 49 49" fill="none" xmlns="http://www.w3.org/2000/svg">
<rect width="49" height="49" rx="7" fill="#FFC96F"/>
<rect x="7.5" y="8.5" width="34" height="33" rx="5.5" stroke="white"/>
<path d="M11.375 17.9719V12.25H17.2652V13.6667H12.8333V17.9719H11.375ZM11.375 37.75V32.0295H12.8333V36.3333H17.2652V37.75H11.375ZM31.7362 37.75V36.3333H36.1667V32.0295H37.625V37.75H31.7362ZM36.1667 17.9719V13.6667H31.7362V12.25H37.625V17.9719H36.1667ZM31.7071 32.0012H33.4746V33.7182H31.7071V32.0012ZM31.7071 28.5686H33.4746V30.2856H31.7071V28.5686ZM29.941 30.2856H31.7071V32.0012H29.941V30.2856ZM28.1735 32.0012H29.941V33.7182H28.1735V32.0012ZM26.4075 30.2856H28.1735V32.0012H26.4075V30.2856ZM29.941 26.853H31.7071V28.5686H29.941V26.853ZM28.1735 28.5686H29.941V30.2856H28.1735V28.5686ZM26.4075 26.853H28.1735V28.5686H26.4075V26.853ZM33.4746 16.2818V23.147H26.4075V16.2818H33.4746ZM22.5925 26.853V33.7182H15.5254V26.853H22.5925ZM22.5925 16.2818V23.147H15.5254V16.2818H22.5925ZM21.3033 32.4658V28.1067H16.8146V32.4658H21.3033ZM21.3033 21.8961V17.5342H16.8146V21.8932L21.3033 21.8961ZM32.184 21.8961V17.5342H27.6967V21.8932L32.184 21.8961Z" fill="white"/>
</svg>
