  <svg
    className="w-10 h-10 mb-1 text-white "
    fill="currentColor"
    viewBox="0 0 28 28"
    xmlns="http://www.w3.org/2000/svg"
    aria-hidden="true"
  >
    <path d="M12.9734 8.12022V11.1477C12.9813 11.5165 12.8778 11.879 12.6763 12.1879C12.4748 12.4968 12.1847 12.7377 11.844 12.8791C11.6178 12.9733 11.3751 13.0221 11.13 13.0226H8.0967C7.60734 13.0226 7.1378 12.8292 6.79035 12.4846C6.4429 12.14 6.2457 11.6721 6.2417 11.1827V8.15522C6.24139 7.9117 6.28919 7.67051 6.38234 7.44551C6.4755 7.22051 6.61218 7.01612 6.78454 6.84409C6.9569 6.67205 7.16155 6.53575 7.38672 6.44302C7.6119 6.35029 7.85318 6.30295 8.0967 6.30372H11.13C11.6134 6.30666 12.0765 6.49815 12.4208 6.83742C12.7651 7.1767 12.9633 7.63696 12.9734 8.12022ZM12.9734 16.8644V19.8919C12.974 20.3817 12.7802 20.8518 12.4346 21.1989C12.0891 21.546 11.6199 21.7418 11.13 21.7434H8.0967C7.60533 21.7434 7.13403 21.5484 6.78625 21.2013C6.43847 20.8542 6.24263 20.3833 6.2417 19.8919V16.8644C6.24417 16.3746 6.44088 15.9057 6.78866 15.5608C7.13644 15.2159 7.60687 15.023 8.0967 15.0246H11.13C11.6183 15.0246 12.0866 15.2183 12.4322 15.5632C12.7778 15.9082 12.9724 16.3761 12.9734 16.8644ZM21.77 8.12022V11.1477C21.777 11.6336 21.5924 12.1027 21.2562 12.4536C20.9199 12.8044 20.4591 13.0088 19.9734 13.0226H16.9517C16.4623 13.0226 15.9928 12.8292 15.6454 12.4846C15.2979 12.14 15.1007 11.6721 15.0967 11.1827V8.15522C15.0964 7.9117 15.1442 7.67051 15.2373 7.44551C15.3305 7.22051 15.4672 7.01612 15.6395 6.84409C15.8119 6.67205 16.0165 6.53575 16.2417 6.44302C16.4669 6.35029 16.7082 6.30295 16.9517 6.30372H19.9734C20.4486 6.31857 20.8999 6.51532 21.2343 6.85335C21.5686 7.19138 21.7604 7.64488 21.77 8.12022ZM21.77 16.8877V19.9152C21.7708 20.3971 21.5835 20.8602 21.2479 21.2061C20.9124 21.5519 20.455 21.753 19.9734 21.7667H16.9517C16.4603 21.7667 15.989 21.5718 15.6413 21.2246C15.2935 20.8775 15.0976 20.4066 15.0967 19.9152V16.8877C15.0995 16.398 15.2963 15.9293 15.644 15.5845C15.9917 15.2396 16.462 15.0466 16.9517 15.0479H19.9734C20.4526 15.0629 20.9073 15.2629 21.2423 15.606C21.5772 15.949 21.7664 16.4083 21.77 16.8877Z" />
    <path d="M24.7919 11.3105C24.5609 11.3075 24.3403 11.2145 24.1769 11.0513C24.0135 10.8881 23.9202 10.6676 23.9169 10.4367V6.83867C23.9252 6.47411 23.8592 6.11166 23.7228 5.77347C23.5864 5.43527 23.3825 5.12843 23.1235 4.87167C22.611 4.36482 21.9194 4.08023 21.1985 4.07951H17.6402C17.4085 4.07951 17.1863 3.98764 17.0223 3.82405C16.8583 3.66046 16.7658 3.4385 16.7652 3.20684C16.7655 2.97498 16.8578 2.75272 17.0219 2.58888C17.186 2.42503 17.4083 2.33301 17.6402 2.33301H21.2335C22.4158 2.3628 23.5389 2.85645 24.3602 3.70734C24.7757 4.1207 25.1052 4.61234 25.3294 5.15383C25.5537 5.69532 25.6684 6.27591 25.6669 6.86201V10.46C25.6605 10.6878 25.5655 10.9041 25.4021 11.0629C25.2387 11.2218 25.0198 11.3106 24.7919 11.3105ZM21.1985 25.6663H17.6402C17.4085 25.6663 17.1863 25.5745 17.0223 25.4109C16.8583 25.2473 16.7658 25.0253 16.7652 24.7937C16.7655 24.5618 16.8578 24.3396 17.0219 24.1757C17.186 24.0119 17.4083 23.9198 17.6402 23.9198H21.2335C21.7716 23.9155 22.2961 23.751 22.7402 23.4472C23.1843 23.1434 23.5277 22.7141 23.7267 22.2142C23.8587 21.883 23.9233 21.5288 23.9169 21.1723V17.6093C23.9172 17.3775 24.0095 17.1552 24.1736 16.9914C24.3376 16.8275 24.56 16.7355 24.7919 16.7355C25.0237 16.7355 25.2461 16.8275 25.4102 16.9914C25.5742 17.1552 25.6666 17.3775 25.6669 17.6093V21.1723C25.6691 22.0557 25.408 22.9197 24.917 23.6541C24.4259 24.3884 23.7272 24.9598 22.91 25.2953C22.3675 25.5182 21.7854 25.6337 21.1985 25.6313V25.6663ZM10.4069 25.6663H6.81354C6.22356 25.6659 5.63945 25.5493 5.09456 25.3231C4.54967 25.0969 4.05468 24.7655 3.63787 24.348C3.22197 23.9309 2.89262 23.4358 2.66877 22.891C2.44492 22.3462 2.331 21.7625 2.33354 21.1735V17.6105C2.33385 17.3786 2.42617 17.1564 2.59023 16.9925C2.75429 16.8287 2.97668 16.7367 3.20854 16.7367C3.4404 16.7367 3.66278 16.8287 3.82684 16.9925C3.9909 17.1564 4.08323 17.3786 4.08354 17.6105V21.1735C4.08632 21.8951 4.37539 22.5861 4.88727 23.0946C5.39914 23.6032 6.09196 23.8879 6.81354 23.886H10.4069C10.6387 23.886 10.8611 23.978 11.0252 24.1419C11.1892 24.3057 11.2816 24.528 11.2819 24.7598C11.282 24.8747 11.2595 24.9884 11.2155 25.0945C11.1716 25.2006 11.1071 25.297 11.0258 25.3781C10.9445 25.4592 10.8479 25.5234 10.7417 25.5671C10.6355 25.6107 10.5217 25.633 10.4069 25.6325V25.6663ZM3.20854 11.3105C2.97761 11.3075 2.75697 11.2145 2.59356 11.0513C2.43015 10.8881 2.33686 10.6676 2.33354 10.4367V6.83867C2.33663 5.66292 2.80665 4.53655 3.6402 3.70734C4.48156 2.87371 5.61746 2.4051 6.80187 2.40301H10.3952C10.6271 2.40301 10.8494 2.49503 11.0135 2.65888C11.1776 2.82272 11.2699 3.04498 11.2702 3.27684C11.2696 3.5085 11.1771 3.73046 11.0131 3.89405C10.8491 4.05764 10.6269 4.14951 10.3952 4.14951H6.80187C6.0802 4.14734 5.3872 4.43186 4.87526 4.94052C4.36332 5.44918 4.07434 6.14033 4.07187 6.86201V10.46C4.06557 10.6858 3.97219 10.9004 3.81128 11.0589C3.65037 11.2174 3.43439 11.3076 3.20854 11.3105Z" />
  </svg>