
    <svg
              xmlns="http://www.w3.org/2000/svg"
                width="24"
                height="24"
                fill="none"
              >
                <rect
                  x=".25"
                  y=".25"
                  width="23.5"
                  height="23.5"
                  rx="11.75"
                  fill="#f5f5f5"
                  stroke="#404446"
                  stroke-width=".5"
                />
                <g fill="#000">
                  <path
                    d="M17.374 9.979l-3.89-1.795c-2.154-.994-3.231-1.491-3.725-.982s.038 1.572 1.101 3.698c.22.44.33.659.33.895s-.11.456-.33.895c-1.063 2.126-1.594 3.19-1.1 3.698s1.57.012 3.725-.982l3.889-1.795c1.698-.784 2.548-1.176 2.548-1.816s-.849-1.032-2.548-1.816z"
                    fill-opacity=".25"
                  />
                  <path d="M10.203 11.479l-.721-2.164a1 1 0 0 0-.707-.654l-1.78-.445a.8.8 0 0 0-.819.275.8.8 0 0 0-.091.859l1.111 2.22a.5.5 0 0 1 0 .448l-1.11 2.22a.8.8 0 0 0 .091.859.8.8 0 0 0 .819.275l1.78-.445a1 1 0 0 0 .706-.654l.72-2.163a1 1 0 0 0 0-.632" />
                </g>
              </svg>