 <svg width="24" height="24" viewBox="0 0 24 24" fill="none">
                <rect
                  x="0.25"
                  y="0.25"
                  width="23.5"
                  height="23.5"
                  rx="11.75"
                  fill="#F5F5F5"
                  stroke="#404446"
                  stroke-width="0.5"
                />
                <path
                  d="M10.0003 11.3337C10.7367 11.3337 11.3337 10.7367 11.3337 10.0003C11.3337 9.26395 10.7367 8.66699 10.0003 8.66699C9.26395 8.66699 8.66699 9.26395 8.66699 10.0003C8.66699 10.7367 9.26395 11.3337 10.0003 11.3337Z"
                  stroke="#404446"
                  stroke-width="0.8"
                />
                <path
                  d="M12.6668 14.0003C12.6668 14.737 12.6668 15.3337 10.0002 15.3337C7.3335 15.3337 7.3335 14.737 7.3335 14.0003C7.3335 13.2637 8.52683 12.667 10.0002 12.667C11.4735 12.667 12.6668 13.2637 12.6668 14.0003Z"
                  stroke="#404446"
                  stroke-width="0.8"
                />
                <path
                  d="M18.6668 12.0003C18.6668 14.5143 18.6668 15.7717 17.8855 16.5523C17.1048 17.3337 15.8475 17.3337 13.3335 17.3337H10.6668C8.15283 17.3337 6.8955 17.3337 6.11483 16.5523C5.3335 15.7717 5.3335 14.5143 5.3335 12.0003C5.3335 9.48633 5.3335 8.22899 6.11483 7.44833C6.8955 6.66699 8.15283 6.66699 10.6668 6.66699H13.3335C15.8475 6.66699 17.1048 6.66699 17.8855 7.44833C18.1988 7.76166 18.3862 8.15099 18.4988 8.66699M16.6668 12.0003H14.0002M16.6668 10.0003H13.3335M16.6668 14.0003H14.6668"
                  stroke="#404446"
                  stroke-width="0.8"
                  stroke-linecap="round"
                />
              </svg>