<svg width="49" height="49" viewBox="0 0 49 49" fill="none" xmlns="http://www.w3.org/2000/svg">
<rect width="49" height="49" rx="7" fill="#FF947A"/>
<path d="M32.942 27.81C35.209 24.446 33.172 19.453 29.694 18.889M37.149 27.403C38.239 28.192 40.539 28.463 42.213 28.437C42.4497 28.4337 42.6723 28.434 42.881 28.438M37.149 27.403C35.261 27.217 32.87 27.84 31.121 28.393M37.149 27.403C39.225 24.983 37.326 19.795 32.17 20.113C32.939 18.297 35.867 16.66 37.66 18.003C39.346 17.206 41.453 17.389 42.956 18.345M22.28 17.037C20.844 17.081 19.819 16.835 18.774 17.238C18.432 17.371 17.881 17.862 17.394 18.147C17.332 17.315 17.259 16.332 17.025 15.407C16.545 13.507 15.384 11.851 12.903 11.761C9.443 11.634 6.672 14.889 8.605 18.871C9.121 19.934 9.838 20.769 11.183 21.397C11.702 21.639 11.753 22.529 11.576 23.009C11.92 22.996 12.252 23.002 12.636 22.924C13.27 23.094 13.628 23.605 14.31 23.458C14.625 24.115 15.136 24.018 15.383 23.761C15.803 23.325 16.147 22.78 16.411 22.276C17.706 22.6 18.389 23.564 19.153 24.435M19.153 24.435C19.483 27.932 20.836 30.23 23.71 28.724C24.424 29.27 25.29 29.574 26.198 29.512M19.153 24.435C18.98 27.597 18.96 30.855 17.885 33.36M19.153 24.435C21.559 27.615 23.366 25.858 22.449 22.347C22.196 21.058 21.528 19.639 21.561 18.456C21.587 17.566 22.284 16.899 23.078 16.651C25.129 16.01 26.994 16.614 28.758 18.367C31.264 19.617 31.393 22.459 29.525 23.74C31.2761 27.4633 31.8047 31.6451 31.035 35.687C27.958 37.084 24.537 36.567 18.959 36.383L16.073 36.963C15.674 37.044 13.372 37.631 13.246 36.606C12.65 36.341 12.379 35.914 12.705 35.655C12.201 35.526 11.889 35.277 11.846 34.859C11.276 34.763 11.546 34.515 11.68 34.123C11.303 33.961 11.03 33.731 11.408 33.373C11.825 32.98 12.071 32.691 12.501 32.62C14.328 32.32 15.941 32.349 16.899 33.675C17.698 33.481 18.349 33.164 18.906 33.422C20.51 33.542 22.889 33.051 24.12 32.654C25.039 32.358 26.222 32.141 27.345 32.271C26.459 30.405 25.895 28.576 25.568 26.149C23.603 24.288 22.945 21.78 23.338 19.424C24.329 16.693 26.944 16.886 27.842 17.548M12.559 36.368L11.533 37.223L9.426 37.243C9.086 37.25 8.922 36.793 9.05 36.523C8.823 36.265 8.707 35.763 8.958 35.506C8.754 35.188 8.801 34.664 9.08 34.442C8.662 34.219 9.03 33.042 9.87 33.36C10.235 32.848 10.998 32.427 11.463 32.447L12.185 32.577C13.103 32.155 13.9 31.455 15.067 31.607C14.816 29.953 14.851 28.536 15.159 27.199C15.307 26.558 15.453 26.142 15.369 25.436C15.312 24.946 15.029 24.613 14.933 24.1M39 6H10C8.93913 6 7.92172 6.42143 7.17157 7.17157C6.42143 7.92172 6 8.93913 6 10V39C6 40.0609 6.42143 41.0783 7.17157 41.8284C7.92172 42.5786 8.93913 43 10 43H39C40.0609 43 41.0783 42.5786 41.8284 41.8284C42.5786 41.0783 43 40.0609 43 39V10C43 8.93913 42.5786 7.92172 41.8284 7.17157C41.0783 6.42143 40.0609 6 39 6Z" stroke="white" stroke-linecap="round" stroke-linejoin="round"/>
</svg>
