<svg width="1020" height="1040" viewBox="0 0 1020 1040" fill="none" xmlns="http://www.w3.org/2000/svg">
<path d="M1016.5 520C1016.5 805.319 789.668 1036.5 510 1036.5C230.332 1036.5 3.5 805.319 3.5 520C3.5 234.681 230.332 3.5 510 3.5C789.668 3.5 1016.5 234.681 1016.5 520Z" fill="#FF8A62" stroke="#FF8A62" stroke-width="7"/>
<circle cx="510" cy="520" r="440" fill="white" stroke="#72777A" stroke-width="20"/>
<path d="M453.58 661.852C483.281 603.634 511.811 546.544 540.32 489.447C548.938 472.187 558.868 455.223 565.635 437.536L477.434 250C416.767 352.643 356.576 454.81 295.981 556.834C272.578 596.236 248.43 635.376 224.243 674.495C217.939 684.692 216.421 690.136 235.692 689.917C297.718 689.21 359.786 688.929 421.795 689.991C448.579 690.45 444.814 673.664 453.58 661.852Z" fill="#EA5F3F"/>
<path d="M629.077 419.042C589 498.15 590.38 495.357 572.299 533.169C549.509 580.826 527.079 628.603 502.811 675.809C496.595 687.903 498.966 689.856 514.412 689.799C601.901 689.479 689.395 689.403 776.882 689.855C793.672 689.942 794.312 685.245 789.602 674.908C762.793 616.058 736.667 557.021 709.933 498.15C691.945 458.538 673.337 419.096 654.037 377.49C629.077 419.042 636.774 404.899 629.077 419.042Z" fill="#EA5F3F"/>
</svg>
